<svg xmlns="http://www.w3.org/2000/svg" width="223" height="42" viewBox="0 0 223 42" fill="none"><g clip-path="url(#clip0_517_391)"><path d="M14.8388 32.3566C15.0289 32.6294 15.1564 32.9404 15.2146 33.2695L15.2235 33.3168C15.228 33.3371 15.2302 33.3574 15.2302 33.3777C15.2683 34.0674 14.9685 35.0006 14.0403 36.8308C12.327 40.2028 8.07498 41.0503 5.29474 38.5529C4.74898 38.0615 4.30834 37.4078 3.95047 36.7564C3.35327 35.6768 2.8679 34.534 2.32437 33.4228C1.89045 32.537 1.89492 31.6669 2.33108 30.7789C3.29064 28.8269 4.23901 26.8682 5.19185 24.914C5.70853 23.8546 6.53388 23.2393 7.72381 23.2393C8.94283 23.237 9.7816 23.8591 10.3005 24.9523C11.0789 26.5842 11.6068 28.3671 12.6468 29.8457C13.7652 31.437 14.2752 31.8067 14.2752 31.8067C14.2752 31.8067 14.5123 32.014 14.6286 32.1177C14.6979 32.1786 14.7605 32.2462 14.812 32.3206L14.8388 32.3566Z" fill="#F06923"></path><path d="M12.9443 8.95572C12.9443 8.95572 12.9957 8.76413 13.3111 7.94594C13.6421 7.08942 14.2595 5.99624 14.7202 5.12394C15.8207 3.03675 17.6436 1.94807 20.0168 2.00217C22.3609 2.05401 24.0227 3.24637 25.0293 5.34709C28.5096 12.5982 31.972 19.856 35.4412 27.1116C35.9064 28.0831 36.3583 29.0613 36.8369 30.026C37.0203 30.3957 37.32 31.0042 37.6377 31.2837C38.1499 31.7345 38.8768 31.4505 39.4718 31.4663C39.7133 31.4731 40.0063 31.5407 40.1294 31.7729C40.1875 31.8833 40.2054 32.0118 40.2099 32.1357C40.2524 33.2177 39.6149 34.1779 39.1117 35.084C38.4205 36.3282 37.7808 37.7752 36.6669 38.7016C35.6224 39.5694 34.2759 40.036 32.9204 39.9932C31.3614 39.9458 29.8897 39.22 28.8742 38.0299C28.4783 37.5656 28.154 37.0201 27.89 36.4657C27.89 36.398 27.7983 36.2741 27.767 36.211C27.7178 36.1095 27.6708 36.0104 27.6216 35.9089C27.5299 35.7151 27.436 35.5212 27.3443 35.3296C27.1586 34.942 26.973 34.5565 26.7873 34.1688C26.416 33.3957 26.0447 32.6204 25.6757 31.8472C24.9353 30.2987 24.1927 28.7503 23.4524 27.2018C22.712 25.6533 21.9717 24.1048 21.2313 22.5563C20.491 21.0078 19.7506 19.4593 19.0103 17.9108C18.2878 16.4006 17.5139 14.8927 16.8384 13.3555C16.4268 12.4156 15.9549 11.4103 15.1139 10.7815C14.6442 10.4298 14.0313 10.4095 13.5459 10.0985C13.1635 9.8483 12.8011 9.44935 12.9443 8.95572Z" fill="#F06923"></path><path d="M34.7322 8.95578C34.7322 8.95578 34.7836 8.76419 35.099 7.94599C35.43 7.08948 36.0473 5.99629 36.5081 5.124C37.6086 3.03455 39.4315 1.94587 41.8047 1.99997C44.1487 2.05181 45.8106 3.24417 46.8172 5.34489C50.2975 12.596 53.7599 19.8538 57.2291 27.1094C57.6943 28.0809 58.1461 29.0591 58.6248 30.0238C58.8082 30.3935 59.1079 31.002 59.4255 31.2815C59.9377 31.7323 60.6647 31.4483 61.2597 31.4641C61.5012 31.4709 61.7942 31.5385 61.9172 31.7707C61.9754 31.8811 61.9933 32.0096 61.9978 32.1335C62.0403 33.2155 61.4028 34.1757 60.8995 35.0818C60.2084 36.326 59.5687 37.773 58.4548 38.6994C57.4103 39.5672 56.0638 40.0338 54.7083 39.991C53.1493 39.9436 51.6775 39.2178 50.6621 38.0277C50.2662 37.5634 49.9419 37.0179 49.6779 36.4635C48.564 34.1419 47.4524 31.8202 46.3407 29.4986C45.2291 27.177 44.1197 24.8532 43.008 22.5316C41.8986 20.2099 40.787 17.8861 39.6775 15.5645C39.2928 14.7598 38.9238 13.9439 38.5301 13.1437C38.161 12.3931 37.7674 11.6425 37.15 11.0655C36.9264 10.8559 36.6759 10.6733 36.4052 10.5313C36.1301 10.3871 35.8281 10.3375 35.5508 10.2113C35.3204 10.1076 34.5286 9.66128 34.7322 8.95578Z" fill="#F06923"></path></g><path d="M79.508 19.598H72.158L70.709 23H67.895L74.51 8.3H77.198L83.834 23H80.978L79.508 19.598ZM78.605 17.456L75.833 11.03L73.082 17.456H78.605ZM91.6675 11.66C92.7595 11.66 93.7325 11.898 94.5865 12.374C95.4545 12.85 96.1335 13.522 96.6235 14.39C97.1135 15.258 97.3585 16.259 97.3585 17.393C97.3585 18.527 97.1135 19.535 96.6235 20.417C96.1335 21.285 95.4545 21.957 94.5865 22.433C93.7325 22.909 92.7595 23.147 91.6675 23.147C90.8975 23.147 90.1905 23.014 89.5465 22.748C88.9165 22.482 88.3845 22.083 87.9505 21.551V23H85.4515V7.418H88.0765V13.151C88.5245 12.661 89.0495 12.29 89.6515 12.038C90.2675 11.786 90.9395 11.66 91.6675 11.66ZM91.3735 20.9C92.3395 20.9 93.1305 20.578 93.7465 19.934C94.3765 19.29 94.6915 18.443 94.6915 17.393C94.6915 16.343 94.3765 15.496 93.7465 14.852C93.1305 14.208 92.3395 13.886 91.3735 13.886C90.7435 13.886 90.1765 14.033 89.6725 14.327C89.1685 14.607 88.7695 15.013 88.4755 15.545C88.1815 16.077 88.0345 16.693 88.0345 17.393C88.0345 18.093 88.1815 18.709 88.4755 19.241C88.7695 19.773 89.1685 20.186 89.6725 20.48C90.1765 20.76 90.7435 20.9 91.3735 20.9ZM110.831 7.418V23H108.311V21.551C107.877 22.083 107.338 22.482 106.694 22.748C106.064 23.014 105.364 23.147 104.594 23.147C103.516 23.147 102.543 22.909 101.675 22.433C100.821 21.957 100.149 21.285 99.659 20.417C99.169 19.535 98.924 18.527 98.924 17.393C98.924 16.259 99.169 15.258 99.659 14.39C100.149 13.522 100.821 12.85 101.675 12.374C102.543 11.898 103.516 11.66 104.594 11.66C105.336 11.66 106.015 11.786 106.631 12.038C107.247 12.29 107.772 12.668 108.206 13.172V7.418H110.831ZM104.909 20.9C105.539 20.9 106.106 20.76 106.61 20.48C107.114 20.186 107.513 19.773 107.807 19.241C108.101 18.709 108.248 18.093 108.248 17.393C108.248 16.693 108.101 16.077 107.807 15.545C107.513 15.013 107.114 14.607 106.61 14.327C106.106 14.033 105.539 13.886 104.909 13.886C104.279 13.886 103.712 14.033 103.208 14.327C102.704 14.607 102.305 15.013 102.011 15.545C101.717 16.077 101.57 16.693 101.57 17.393C101.57 18.093 101.717 18.709 102.011 19.241C102.305 19.773 102.704 20.186 103.208 20.48C103.712 20.76 104.279 20.9 104.909 20.9ZM125.122 11.786V23H122.623V21.572C122.203 22.076 121.678 22.468 121.048 22.748C120.418 23.014 119.739 23.147 119.011 23.147C117.513 23.147 116.33 22.734 115.462 21.908C114.608 21.068 114.181 19.829 114.181 18.191V11.786H116.806V17.834C116.806 18.842 117.03 19.598 117.478 20.102C117.94 20.592 118.591 20.837 119.431 20.837C120.369 20.837 121.111 20.55 121.657 19.976C122.217 19.388 122.497 18.548 122.497 17.456V11.786H125.122ZM128.559 7.418H131.184V23H128.559V7.418ZM154.188 23L154.167 13.256L149.337 21.32H148.119L143.289 13.382V23H140.685V8.3H142.932L148.77 18.044L154.503 8.3H156.75L156.771 23H154.188ZM164.774 11.66C166.426 11.66 167.686 12.059 168.554 12.857C169.436 13.641 169.877 14.831 169.877 16.427V23H167.399V21.635C167.077 22.125 166.615 22.503 166.013 22.769C165.425 23.021 164.711 23.147 163.871 23.147C163.031 23.147 162.296 23.007 161.666 22.727C161.036 22.433 160.546 22.034 160.196 21.53C159.86 21.012 159.692 20.431 159.692 19.787C159.692 18.779 160.063 17.974 160.805 17.372C161.561 16.756 162.744 16.448 164.354 16.448H167.252V16.28C167.252 15.496 167.014 14.894 166.538 14.474C166.076 14.054 165.383 13.844 164.459 13.844C163.829 13.844 163.206 13.942 162.59 14.138C161.988 14.334 161.477 14.607 161.057 14.957L160.028 13.046C160.616 12.598 161.323 12.255 162.149 12.017C162.975 11.779 163.85 11.66 164.774 11.66ZM164.417 21.236C165.075 21.236 165.656 21.089 166.16 20.795C166.678 20.487 167.042 20.053 167.252 19.493V18.191H164.543C163.031 18.191 162.275 18.688 162.275 19.682C162.275 20.158 162.464 20.536 162.842 20.816C163.22 21.096 163.745 21.236 164.417 21.236ZM179.986 22.391C179.678 22.643 179.3 22.832 178.852 22.958C178.418 23.084 177.956 23.147 177.466 23.147C176.234 23.147 175.282 22.825 174.61 22.181C173.938 21.537 173.602 20.599 173.602 19.367V13.97H171.754V11.87H173.602V9.308H176.227V11.87H179.23V13.97H176.227V19.304C176.227 19.85 176.36 20.27 176.626 20.564C176.892 20.844 177.277 20.984 177.781 20.984C178.369 20.984 178.859 20.83 179.251 20.522L179.986 22.391ZM192.319 17.456C192.319 17.638 192.305 17.897 192.277 18.233H183.478C183.632 19.059 184.031 19.717 184.675 20.207C185.333 20.683 186.145 20.921 187.111 20.921C188.343 20.921 189.358 20.515 190.156 19.703L191.563 21.32C191.059 21.922 190.422 22.377 189.652 22.685C188.882 22.993 188.014 23.147 187.048 23.147C185.816 23.147 184.731 22.902 183.793 22.412C182.855 21.922 182.127 21.243 181.609 20.375C181.105 19.493 180.853 18.499 180.853 17.393C180.853 16.301 181.098 15.321 181.588 14.453C182.092 13.571 182.785 12.885 183.667 12.395C184.549 11.905 185.543 11.66 186.649 11.66C187.741 11.66 188.714 11.905 189.568 12.395C190.436 12.871 191.108 13.55 191.584 14.432C192.074 15.3 192.319 16.308 192.319 17.456ZM186.649 13.76C185.809 13.76 185.095 14.012 184.507 14.516C183.933 15.006 183.583 15.664 183.457 16.49H189.82C189.708 15.678 189.365 15.02 188.791 14.516C188.217 14.012 187.503 13.76 186.649 13.76ZM205.382 17.456C205.382 17.638 205.368 17.897 205.34 18.233H196.541C196.695 19.059 197.094 19.717 197.738 20.207C198.396 20.683 199.208 20.921 200.174 20.921C201.406 20.921 202.421 20.515 203.219 19.703L204.626 21.32C204.122 21.922 203.485 22.377 202.715 22.685C201.945 22.993 201.077 23.147 200.111 23.147C198.879 23.147 197.794 22.902 196.856 22.412C195.918 21.922 195.19 21.243 194.672 20.375C194.168 19.493 193.916 18.499 193.916 17.393C193.916 16.301 194.161 15.321 194.651 14.453C195.155 13.571 195.848 12.885 196.73 12.395C197.612 11.905 198.606 11.66 199.712 11.66C200.804 11.66 201.777 11.905 202.631 12.395C203.499 12.871 204.171 13.55 204.647 14.432C205.137 15.3 205.382 16.308 205.382 17.456ZM199.712 13.76C198.872 13.76 198.158 14.012 197.57 14.516C196.996 15.006 196.646 15.664 196.52 16.49H202.883C202.771 15.678 202.428 15.02 201.854 14.516C201.28 14.012 200.566 13.76 199.712 13.76ZM214.267 11.66C215.681 11.66 216.815 12.073 217.669 12.899C218.523 13.725 218.95 14.95 218.95 16.574V23H216.325V16.91C216.325 15.93 216.094 15.195 215.632 14.705C215.17 14.201 214.512 13.949 213.658 13.949C212.692 13.949 211.929 14.243 211.369 14.831C210.809 15.405 210.529 16.238 210.529 17.33V23H207.904V11.786H210.403V13.235C210.837 12.717 211.383 12.325 212.041 12.059C212.699 11.793 213.441 11.66 214.267 11.66Z" fill="white"></path><path d="M75.308 35.232V36H69.368V27.6H75.128V28.368H70.256V31.356H74.6V32.112H70.256V35.232H75.308ZM81.1196 36L79.1156 33.36L77.0996 36H76.1396L78.6356 32.76L76.2596 29.688H77.2196L79.1156 32.16L81.0116 29.688H81.9476L79.5716 32.76L82.0916 36H81.1196ZM86.8217 29.64C87.4137 29.64 87.9497 29.776 88.4297 30.048C88.9097 30.312 89.2857 30.688 89.5577 31.176C89.8297 31.664 89.9657 32.22 89.9657 32.844C89.9657 33.476 89.8297 34.036 89.5577 34.524C89.2857 35.012 88.9097 35.392 88.4297 35.664C87.9577 35.928 87.4217 36.06 86.8217 36.06C86.3097 36.06 85.8457 35.956 85.4297 35.748C85.0217 35.532 84.6857 35.22 84.4217 34.812V38.328H83.5697V29.688H84.3857V30.936C84.6417 30.52 84.9777 30.2 85.3937 29.976C85.8177 29.752 86.2937 29.64 86.8217 29.64ZM86.7617 35.304C87.2017 35.304 87.6017 35.204 87.9617 35.004C88.3217 34.796 88.6017 34.504 88.8017 34.128C89.0097 33.752 89.1137 33.324 89.1137 32.844C89.1137 32.364 89.0097 31.94 88.8017 31.572C88.6017 31.196 88.3217 30.904 87.9617 30.696C87.6017 30.488 87.2017 30.384 86.7617 30.384C86.3137 30.384 85.9097 30.488 85.5497 30.696C85.1977 30.904 84.9177 31.196 84.7097 31.572C84.5097 31.94 84.4097 32.364 84.4097 32.844C84.4097 33.324 84.5097 33.752 84.7097 34.128C84.9177 34.504 85.1977 34.796 85.5497 35.004C85.9097 35.204 86.3137 35.304 86.7617 35.304ZM97.2585 33.108H91.9785C92.0265 33.764 92.2785 34.296 92.7345 34.704C93.1905 35.104 93.7665 35.304 94.4625 35.304C94.8545 35.304 95.2145 35.236 95.5425 35.1C95.8705 34.956 96.1545 34.748 96.3945 34.476L96.8745 35.028C96.5945 35.364 96.2425 35.62 95.8185 35.796C95.4025 35.972 94.9425 36.06 94.4385 36.06C93.7905 36.06 93.2145 35.924 92.7105 35.652C92.2145 35.372 91.8265 34.988 91.5465 34.5C91.2665 34.012 91.1265 33.46 91.1265 32.844C91.1265 32.228 91.2585 31.676 91.5225 31.188C91.7945 30.7 92.1625 30.32 92.6265 30.048C93.0985 29.776 93.6265 29.64 94.2105 29.64C94.7945 29.64 95.3185 29.776 95.7825 30.048C96.2465 30.32 96.6105 30.7 96.8745 31.188C97.1385 31.668 97.2705 32.22 97.2705 32.844L97.2585 33.108ZM94.2105 30.372C93.6025 30.372 93.0905 30.568 92.6745 30.96C92.2665 31.344 92.0345 31.848 91.9785 32.472H96.4545C96.3985 31.848 96.1625 31.344 95.7465 30.96C95.3385 30.568 94.8265 30.372 94.2105 30.372ZM99.8807 30.924C100.081 30.5 100.377 30.18 100.769 29.964C101.169 29.748 101.661 29.64 102.245 29.64V30.468L102.041 30.456C101.377 30.456 100.857 30.66 100.481 31.068C100.105 31.476 99.9167 32.048 99.9167 32.784V36H99.0647V29.688H99.8807V30.924ZM107.441 35.616C107.281 35.76 107.081 35.872 106.841 35.952C106.609 36.024 106.365 36.06 106.109 36.06C105.517 36.06 105.061 35.9 104.741 35.58C104.421 35.26 104.261 34.808 104.261 34.224V30.408H103.133V29.688H104.261V28.308H105.113V29.688H107.033V30.408H105.113V34.176C105.113 34.552 105.205 34.84 105.389 35.04C105.581 35.232 105.853 35.328 106.205 35.328C106.381 35.328 106.549 35.3 106.709 35.244C106.877 35.188 107.021 35.108 107.141 35.004L107.441 35.616ZM123.965 27.6L121.133 36H120.197L117.737 28.836L115.265 36H114.341L111.509 27.6H112.421L114.845 34.824L117.353 27.6H118.181L120.653 34.86L123.113 27.6H123.965ZM130.488 33.108H125.208C125.256 33.764 125.508 34.296 125.964 34.704C126.42 35.104 126.996 35.304 127.692 35.304C128.084 35.304 128.444 35.236 128.772 35.1C129.1 34.956 129.384 34.748 129.624 34.476L130.104 35.028C129.824 35.364 129.472 35.62 129.048 35.796C128.632 35.972 128.172 36.06 127.668 36.06C127.02 36.06 126.444 35.924 125.94 35.652C125.444 35.372 125.056 34.988 124.776 34.5C124.496 34.012 124.356 33.46 124.356 32.844C124.356 32.228 124.488 31.676 124.752 31.188C125.024 30.7 125.392 30.32 125.856 30.048C126.328 29.776 126.856 29.64 127.44 29.64C128.024 29.64 128.548 29.776 129.012 30.048C129.476 30.32 129.84 30.7 130.104 31.188C130.368 31.668 130.5 32.22 130.5 32.844L130.488 33.108ZM127.44 30.372C126.832 30.372 126.32 30.568 125.904 30.96C125.496 31.344 125.264 31.848 125.208 32.472H129.684C129.628 31.848 129.392 31.344 128.976 30.96C128.568 30.568 128.056 30.372 127.44 30.372ZM135.546 29.64C136.138 29.64 136.674 29.776 137.154 30.048C137.634 30.312 138.01 30.688 138.282 31.176C138.554 31.664 138.69 32.22 138.69 32.844C138.69 33.468 138.554 34.024 138.282 34.512C138.01 35 137.634 35.38 137.154 35.652C136.674 35.924 136.138 36.06 135.546 36.06C135.018 36.06 134.542 35.948 134.118 35.724C133.702 35.5 133.366 35.176 133.11 34.752V36H132.294V27.096H133.146V30.888C133.41 30.48 133.746 30.172 134.154 29.964C134.57 29.748 135.034 29.64 135.546 29.64ZM135.486 35.304C135.926 35.304 136.326 35.204 136.686 35.004C137.046 34.796 137.326 34.504 137.526 34.128C137.734 33.752 137.838 33.324 137.838 32.844C137.838 32.364 137.734 31.936 137.526 31.56C137.326 31.184 137.046 30.896 136.686 30.696C136.326 30.488 135.926 30.384 135.486 30.384C135.038 30.384 134.634 30.488 134.274 30.696C133.922 30.896 133.642 31.184 133.434 31.56C133.234 31.936 133.134 32.364 133.134 32.844C133.134 33.324 133.234 33.752 133.434 34.128C133.642 34.504 133.922 34.796 134.274 35.004C134.634 35.204 135.038 35.304 135.486 35.304ZM142.179 36.06C141.667 36.06 141.175 35.988 140.703 35.844C140.239 35.692 139.875 35.504 139.611 35.28L139.995 34.608C140.259 34.816 140.591 34.988 140.991 35.124C141.391 35.252 141.807 35.316 142.239 35.316C142.815 35.316 143.239 35.228 143.511 35.052C143.791 34.868 143.931 34.612 143.931 34.284C143.931 34.052 143.855 33.872 143.703 33.744C143.551 33.608 143.359 33.508 143.127 33.444C142.895 33.372 142.587 33.304 142.203 33.24C141.691 33.144 141.279 33.048 140.967 32.952C140.655 32.848 140.387 32.676 140.163 32.436C139.947 32.196 139.839 31.864 139.839 31.44C139.839 30.912 140.059 30.48 140.499 30.144C140.939 29.808 141.551 29.64 142.335 29.64C142.743 29.64 143.151 29.696 143.559 29.808C143.967 29.912 144.303 30.052 144.567 30.228L144.195 30.912C143.675 30.552 143.055 30.372 142.335 30.372C141.791 30.372 141.379 30.468 141.099 30.66C140.827 30.852 140.691 31.104 140.691 31.416C140.691 31.656 140.767 31.848 140.919 31.992C141.079 32.136 141.275 32.244 141.507 32.316C141.739 32.38 142.059 32.448 142.467 32.52C142.971 32.616 143.375 32.712 143.679 32.808C143.983 32.904 144.243 33.068 144.459 33.3C144.675 33.532 144.783 33.852 144.783 34.26C144.783 34.812 144.551 35.252 144.087 35.58C143.631 35.9 142.995 36.06 142.179 36.06ZM146.418 29.688H147.27V36H146.418V29.688ZM146.85 28.308C146.674 28.308 146.526 28.248 146.406 28.128C146.286 28.008 146.226 27.864 146.226 27.696C146.226 27.536 146.286 27.396 146.406 27.276C146.526 27.156 146.674 27.096 146.85 27.096C147.026 27.096 147.174 27.156 147.294 27.276C147.414 27.388 147.474 27.524 147.474 27.684C147.474 27.86 147.414 28.008 147.294 28.128C147.174 28.248 147.026 28.308 146.85 28.308ZM153.025 35.616C152.865 35.76 152.665 35.872 152.425 35.952C152.193 36.024 151.949 36.06 151.693 36.06C151.101 36.06 150.645 35.9 150.325 35.58C150.005 35.26 149.845 34.808 149.845 34.224V30.408H148.717V29.688H149.845V28.308H150.697V29.688H152.617V30.408H150.697V34.176C150.697 34.552 150.789 34.84 150.973 35.04C151.165 35.232 151.437 35.328 151.789 35.328C151.965 35.328 152.133 35.3 152.293 35.244C152.461 35.188 152.605 35.108 152.725 35.004L153.025 35.616ZM159.909 33.108H154.629C154.677 33.764 154.929 34.296 155.385 34.704C155.841 35.104 156.417 35.304 157.113 35.304C157.505 35.304 157.865 35.236 158.193 35.1C158.521 34.956 158.805 34.748 159.045 34.476L159.525 35.028C159.245 35.364 158.893 35.62 158.469 35.796C158.053 35.972 157.593 36.06 157.089 36.06C156.441 36.06 155.865 35.924 155.361 35.652C154.865 35.372 154.477 34.988 154.197 34.5C153.917 34.012 153.777 33.46 153.777 32.844C153.777 32.228 153.909 31.676 154.173 31.188C154.445 30.7 154.813 30.32 155.277 30.048C155.749 29.776 156.277 29.64 156.861 29.64C157.445 29.64 157.969 29.776 158.433 30.048C158.897 30.32 159.261 30.7 159.525 31.188C159.789 31.668 159.921 32.22 159.921 32.844L159.909 33.108ZM156.861 30.372C156.253 30.372 155.741 30.568 155.325 30.96C154.917 31.344 154.685 31.848 154.629 32.472H159.105C159.049 31.848 158.813 31.344 158.397 30.96C157.989 30.568 157.477 30.372 156.861 30.372ZM165.096 27.6H168.516C169.404 27.6 170.188 27.78 170.868 28.14C171.548 28.492 172.076 28.988 172.452 29.628C172.828 30.26 173.016 30.984 173.016 31.8C173.016 32.616 172.828 33.344 172.452 33.984C172.076 34.616 171.548 35.112 170.868 35.472C170.188 35.824 169.404 36 168.516 36H165.096V27.6ZM168.468 35.232C169.204 35.232 169.848 35.088 170.4 34.8C170.952 34.504 171.38 34.1 171.684 33.588C171.988 33.068 172.14 32.472 172.14 31.8C172.14 31.128 171.988 30.536 171.684 30.024C171.38 29.504 170.952 29.1 170.4 28.812C169.848 28.516 169.204 28.368 168.468 28.368H165.984V35.232H168.468ZM180.386 33.108H175.106C175.154 33.764 175.406 34.296 175.862 34.704C176.318 35.104 176.894 35.304 177.59 35.304C177.982 35.304 178.342 35.236 178.67 35.1C178.998 34.956 179.282 34.748 179.522 34.476L180.002 35.028C179.722 35.364 179.37 35.62 178.946 35.796C178.53 35.972 178.07 36.06 177.566 36.06C176.918 36.06 176.342 35.924 175.838 35.652C175.342 35.372 174.954 34.988 174.674 34.5C174.394 34.012 174.254 33.46 174.254 32.844C174.254 32.228 174.386 31.676 174.65 31.188C174.922 30.7 175.29 30.32 175.754 30.048C176.226 29.776 176.754 29.64 177.338 29.64C177.922 29.64 178.446 29.776 178.91 30.048C179.374 30.32 179.738 30.7 180.002 31.188C180.266 31.668 180.398 32.22 180.398 32.844L180.386 33.108ZM177.338 30.372C176.73 30.372 176.218 30.568 175.802 30.96C175.394 31.344 175.162 31.848 175.106 32.472H179.582C179.526 31.848 179.29 31.344 178.874 30.96C178.466 30.568 177.954 30.372 177.338 30.372ZM183.884 36.06C183.372 36.06 182.88 35.988 182.408 35.844C181.944 35.692 181.58 35.504 181.316 35.28L181.7 34.608C181.964 34.816 182.296 34.988 182.696 35.124C183.096 35.252 183.512 35.316 183.944 35.316C184.52 35.316 184.944 35.228 185.216 35.052C185.496 34.868 185.636 34.612 185.636 34.284C185.636 34.052 185.56 33.872 185.408 33.744C185.256 33.608 185.064 33.508 184.832 33.444C184.6 33.372 184.292 33.304 183.908 33.24C183.396 33.144 182.984 33.048 182.672 32.952C182.36 32.848 182.092 32.676 181.868 32.436C181.652 32.196 181.544 31.864 181.544 31.44C181.544 30.912 181.764 30.48 182.204 30.144C182.644 29.808 183.256 29.64 184.04 29.64C184.448 29.64 184.856 29.696 185.264 29.808C185.672 29.912 186.008 30.052 186.272 30.228L185.9 30.912C185.38 30.552 184.76 30.372 184.04 30.372C183.496 30.372 183.084 30.468 182.804 30.66C182.532 30.852 182.396 31.104 182.396 31.416C182.396 31.656 182.472 31.848 182.624 31.992C182.784 32.136 182.98 32.244 183.212 32.316C183.444 32.38 183.764 32.448 184.172 32.52C184.676 32.616 185.08 32.712 185.384 32.808C185.688 32.904 185.948 33.068 186.164 33.3C186.38 33.532 186.488 33.852 186.488 34.26C186.488 34.812 186.256 35.252 185.792 35.58C185.336 35.9 184.7 36.06 183.884 36.06ZM188.123 29.688H188.975V36H188.123V29.688ZM188.555 28.308C188.379 28.308 188.231 28.248 188.111 28.128C187.991 28.008 187.931 27.864 187.931 27.696C187.931 27.536 187.991 27.396 188.111 27.276C188.231 27.156 188.379 27.096 188.555 27.096C188.731 27.096 188.879 27.156 188.999 27.276C189.119 27.388 189.179 27.524 189.179 27.684C189.179 27.86 189.119 28.008 188.999 28.128C188.879 28.248 188.731 28.308 188.555 28.308ZM197.25 29.688V35.232C197.25 36.304 196.986 37.096 196.458 37.608C195.938 38.128 195.15 38.388 194.094 38.388C193.51 38.388 192.954 38.3 192.426 38.124C191.906 37.956 191.482 37.72 191.154 37.416L191.586 36.768C191.89 37.04 192.258 37.252 192.69 37.404C193.13 37.556 193.59 37.632 194.07 37.632C194.87 37.632 195.458 37.444 195.834 37.068C196.21 36.7 196.398 36.124 196.398 35.34V34.536C196.134 34.936 195.786 35.24 195.354 35.448C194.93 35.656 194.458 35.76 193.938 35.76C193.346 35.76 192.806 35.632 192.318 35.376C191.838 35.112 191.458 34.748 191.178 34.284C190.906 33.812 190.77 33.28 190.77 32.688C190.77 32.096 190.906 31.568 191.178 31.104C191.458 30.64 191.838 30.28 192.318 30.024C192.798 29.768 193.338 29.64 193.938 29.64C194.474 29.64 194.958 29.748 195.39 29.964C195.822 30.18 196.17 30.492 196.434 30.9V29.688H197.25ZM194.022 35.004C194.478 35.004 194.89 34.908 195.258 34.716C195.626 34.516 195.91 34.24 196.11 33.888C196.318 33.536 196.422 33.136 196.422 32.688C196.422 32.24 196.318 31.844 196.11 31.5C195.91 31.148 195.626 30.876 195.258 30.684C194.898 30.484 194.486 30.384 194.022 30.384C193.566 30.384 193.154 30.48 192.786 30.672C192.426 30.864 192.142 31.136 191.934 31.488C191.734 31.84 191.634 32.24 191.634 32.688C191.634 33.136 191.734 33.536 191.934 33.888C192.142 34.24 192.426 34.516 192.786 34.716C193.154 34.908 193.566 35.004 194.022 35.004ZM202.909 29.64C203.701 29.64 204.329 29.872 204.793 30.336C205.265 30.792 205.501 31.46 205.501 32.34V36H204.649V32.424C204.649 31.768 204.485 31.268 204.157 30.924C203.829 30.58 203.361 30.408 202.753 30.408C202.073 30.408 201.533 30.612 201.133 31.02C200.741 31.42 200.545 31.976 200.545 32.688V36H199.693V29.688H200.509V30.852C200.741 30.468 201.061 30.172 201.469 29.964C201.885 29.748 202.365 29.64 202.909 29.64ZM213.393 33.108H208.113C208.161 33.764 208.413 34.296 208.869 34.704C209.325 35.104 209.901 35.304 210.597 35.304C210.989 35.304 211.349 35.236 211.677 35.1C212.005 34.956 212.289 34.748 212.529 34.476L213.009 35.028C212.729 35.364 212.377 35.62 211.953 35.796C211.537 35.972 211.077 36.06 210.573 36.06C209.925 36.06 209.349 35.924 208.845 35.652C208.349 35.372 207.961 34.988 207.681 34.5C207.401 34.012 207.261 33.46 207.261 32.844C207.261 32.228 207.393 31.676 207.657 31.188C207.929 30.7 208.297 30.32 208.761 30.048C209.233 29.776 209.761 29.64 210.345 29.64C210.929 29.64 211.453 29.776 211.917 30.048C212.381 30.32 212.745 30.7 213.009 31.188C213.273 31.668 213.405 32.22 213.405 32.844L213.393 33.108ZM210.345 30.372C209.737 30.372 209.225 30.568 208.809 30.96C208.401 31.344 208.169 31.848 208.113 32.472H212.589C212.533 31.848 212.297 31.344 211.881 30.96C211.473 30.568 210.961 30.372 210.345 30.372ZM216.015 30.924C216.215 30.5 216.511 30.18 216.903 29.964C217.303 29.748 217.795 29.64 218.379 29.64V30.468L218.175 30.456C217.511 30.456 216.991 30.66 216.615 31.068C216.239 31.476 216.051 32.048 216.051 32.784V36H215.199V29.688H216.015V30.924Z" fill="white"></path><defs><clipPath id="clip0_517_391"><rect width="60" height="38" fill="white" transform="translate(2 2)"></rect></clipPath></defs></svg>